<?xml version="1.0" encoding="utf-8"?>
<svg id="master-artboard" viewBox="0 0 1096 780" version="1.1" xmlns="http://www.w3.org/2000/svg" x="0px" y="0px" style="enable-background:new 0 0 1096 780;" width="1096px" height="780px"><defs><filter id="shadow" x="-50%" y="-50%" width="200%" height="200%">
      <feOffset result="offOut" in="SourceAlpha" dx="0" dy="0"/>
      <feGaussianBlur result="blurOut" in="offOut" stdDeviation="3"/>
      <feComponentTransfer in="blurOut" result="opacityOut">
        <feFuncA type="linear" slope="0.5"/>
      </feComponentTransfer>
      <feBlend in="SourceGraphic" in2="opacityOut" mode="normal"/>
    </filter></defs>



<g transform="matrix(6.212143667054557, 0, 0, 6.212143667054557, 268.3108714862053, 75.514829886315)"><title>node-icon</title><g id="Layer_2" data-name="Layer 2"><g id="svg3030"><g id="layer1"><path id="path28" class="cls-1" d="M45.11,0a7.81,7.81,0,0,0-3.88,1L3.88,22.51A7.87,7.87,0,0,0,0,29.33v43a7.87,7.87,0,0,0,3.88,6.82l9.75,5.63c4.74,2.33,6.48,2.3,8.64,2.3,7,0,11-4.26,11-11.65V33a1.07,1.07,0,0,0-1.11-1H27.51a1.06,1.06,0,0,0-1.11,1V75.47c0,3.28-3.42,6.58-9,3.81L7.29,73.33a1.12,1.12,0,0,1-.63-1v-43a1.26,1.26,0,0,1,.63-1L44.55,6.82a1.1,1.1,0,0,1,1.11,0L82.92,28.3a1.26,1.26,0,0,1,.63,1v43a1.2,1.2,0,0,1-.55,1L45.66,94.89a1.15,1.15,0,0,1-1.11,0L35,89.18a1,1,0,0,0-1,0,24.68,24.68,0,0,1-5.63,2.54c-.61.21-1.54.54.32,1.59l12.52,7.37a7.84,7.84,0,0,0,7.77,0L86.33,79.19a7.88,7.88,0,0,0,3.88-6.82v-43a7.87,7.87,0,0,0-3.88-6.82L49,1a7.79,7.79,0,0,0-3.88-1Zm10,30.76c-10.63,0-17,4.52-17,12,0,8.16,6.28,10.41,16.49,11.42,12.21,1.2,13.16,3,13.16,5.39,0,4.17-3.32,5.95-11.18,5.95-9.87,0-12-2.46-12.76-7.37a1.07,1.07,0,0,0-1-1H38a1.13,1.13,0,0,0-1.11,1.11c0,6.28,3.42,13.71,19.74,13.71,11.81,0,18.63-4.64,18.63-12.76s-5.5-10.22-17-11.73-12.68-2.28-12.68-5c0-2.24.94-5.23,9.51-5.23,7.66,0,10.49,1.65,11.65,6.82a1.08,1.08,0,0,0,1,.87h4.84a1.17,1.17,0,0,0,.79-.4,1,1,0,0,0,.32-.79C73,34.94,67,30.76,55.09,30.76Z" style="fill: rgb(131, 205, 41);"/></g></g></g></g></svg>